<svg width="149" height="56" viewBox="0 0 149 56" fill="none" xmlns="http://www.w3.org/2000/svg">
<path d="M12.4422 31.2564C13.0861 28.6633 13.833 26.1507 14.7471 23.6487L14.9776 23.0177L15.604 22.7743C18.178 21.7745 22.089 21.2789 25.9653 21.2789C29.8685 21.2789 33.8097 21.7786 36.3896 22.7686L37.019 23.0101L37.2523 23.6487C38.1666 26.1505 38.9134 28.6633 39.5572 31.2564C40.204 33.8613 40.7431 36.5182 41.2409 39.3083L41.4189 40.3064L40.5401 40.8311C36.1794 43.4353 31.0839 44.7375 25.9998 44.7375C20.9155 44.7375 15.82 43.4353 11.4592 40.8311L10.5806 40.3064L10.7586 39.3083C11.2563 36.5182 11.7954 33.8613 12.4422 31.2564ZM17.2909 25.3111C16.5217 27.4908 15.878 29.6917 15.314 31.9628C14.773 34.1419 14.3021 36.4082 13.8617 38.7975C17.5442 40.781 21.7671 41.7732 25.9998 41.7732C30.2323 41.7732 34.4552 40.781 38.1376 38.7975C37.6972 36.4082 37.2264 34.1419 36.6853 31.9628C36.122 29.6942 35.4792 27.4953 34.7108 25.318C32.4674 24.6036 29.2287 24.2433 25.9653 24.2433C22.7207 24.2433 19.5114 24.5974 17.2909 25.3111Z" fill="white"/>
<path fill-rule="evenodd" clip-rule="evenodd" d="M16.1367 24.1521C14.3478 29.0482 13.2092 34.005 12.2178 39.5629C20.4613 44.4857 31.5384 44.4857 39.7819 39.5629C38.7903 34.005 37.6518 29.0482 35.8628 24.1521C31.0585 22.3085 20.941 22.2858 16.1367 24.1521Z" fill="white"/>
<path fill-rule="evenodd" clip-rule="evenodd" d="M17.9867 26.2949C16.5333 29.9383 15.6082 33.6267 14.8027 37.7626C17.9023 39.4579 21.3891 40.4792 26 40.4792C30.6107 40.4792 34.0975 39.4579 37.197 37.7626C36.3916 33.6267 35.4665 29.9383 34.0132 26.2949C30.109 25.136 21.8909 25.1175 17.9867 26.2949Z" fill="#02549E"/>
<path fill-rule="evenodd" clip-rule="evenodd" d="M21.6893 29.4563C23.0666 29.4563 24.1832 31.0201 24.1832 32.9487C24.1832 34.8775 23.0666 36.4411 21.6893 36.4411C20.3118 36.4411 19.1953 34.8775 19.1953 32.9487C19.1953 31.0201 20.3118 29.4563 21.6893 29.4563Z" fill="#E9E9E9"/>
<path fill-rule="evenodd" clip-rule="evenodd" d="M30.1491 29.3777C31.5265 29.3777 32.643 30.9415 32.643 32.8701C32.643 34.7989 31.5265 36.3625 30.1491 36.3625C28.7718 36.3625 27.6553 34.7989 27.6553 32.8701C27.6553 30.9415 28.7718 29.3777 30.1491 29.3777Z" fill="#E9E9E9"/>
<path fill-rule="evenodd" clip-rule="evenodd" d="M24.803 18.6122H27.1967L27.9689 22.1644H24.0308L24.803 18.6122Z" fill="white"/>
<path fill-rule="evenodd" clip-rule="evenodd" d="M26.0001 14.4808C27.4928 14.4808 28.7027 15.6908 28.7027 17.1836C28.7027 18.6762 27.4928 19.8862 26.0001 19.8862C24.5073 19.8862 23.2974 18.6762 23.2974 17.1836C23.2974 15.6908 24.5073 14.4808 26.0001 14.4808Z" fill="white"/>
<path fill-rule="evenodd" clip-rule="evenodd" d="M11.7385 27.1715C12.5375 27.0673 13.3363 26.9631 14.1354 26.8588C13.4173 29.9148 12.6992 32.9706 11.9812 36.0266C11.3207 35.5415 10.6604 35.0561 10 34.5709C10.4595 32.0345 10.982 29.5348 11.7385 27.1715Z" fill="white"/>
<path fill-rule="evenodd" clip-rule="evenodd" d="M40.2616 27.1715C39.4627 27.0673 38.6637 26.9631 37.8647 26.8588C38.5828 29.9148 39.3008 32.9706 40.019 36.0266C40.6794 35.5415 41.3397 35.0561 42.0001 34.5709C41.5406 32.0345 41.018 29.5348 40.2616 27.1715Z" fill="white"/>
<path d="M19.0906 16.0165L19.6511 15.8014C19.7652 16.0988 20.2464 16.2047 20.7031 16.0294C21.1599 15.854 21.4466 15.4533 21.3325 15.156C21.2162 14.8531 20.8825 14.8548 20.2099 14.9456C19.5598 15.0277 18.7503 15.1299 18.4564 14.3645C18.2672 13.8716 18.5185 13.295 19.0335 12.9362L18.8031 12.3359L19.6438 12.0132L19.8742 12.6135C20.497 12.5355 21.0696 12.7959 21.2588 13.2888L20.6983 13.5039C20.5841 13.2065 20.103 13.1006 19.6462 13.2759C19.1894 13.4513 18.9027 13.852 19.0169 14.1493C19.1332 14.4522 19.4669 14.4505 20.1394 14.3598C20.7895 14.2776 21.5991 14.1754 21.8929 14.9408C22.0821 15.4337 21.8308 16.0103 21.3159 16.3691L21.5463 16.9694L20.7056 17.2921L20.4752 16.6919C19.8524 16.7698 19.2798 16.5094 19.0906 16.0165Z" fill="white"/>
<path d="M29.8342 14.9405L30.3947 15.1557C30.2805 15.4531 30.5672 15.8538 31.024 16.0291C31.4808 16.2044 31.9619 16.0985 32.0761 15.8011C32.1923 15.4982 31.9432 15.2762 31.3827 14.8936C30.8446 14.5197 30.1745 14.0539 30.4684 13.2885C30.6576 12.7956 31.2302 12.5352 31.8529 12.6132L32.0834 12.0129L32.924 12.3356L32.6936 12.9359C33.2086 13.2947 33.4599 13.8713 33.2707 14.3642L32.7102 14.1491C32.8244 13.8517 32.5377 13.451 32.0809 13.2757C31.6241 13.1003 31.143 13.2063 31.0288 13.5036C30.9126 13.8065 31.1617 14.0285 31.7222 14.4111C32.2603 14.7851 32.9304 15.2508 32.6365 16.0163C32.4473 16.5091 31.8747 16.7695 31.252 16.6916L31.0215 17.2918L30.1809 16.9691L30.4113 16.3689C29.8963 16.0101 29.645 15.4334 29.8342 14.9405Z" fill="white"/>
<path d="M57.5781 37.187V21.7104H52V20.3432C52 19.7963 52.1823 19.3406 52.5469 18.976C52.9479 18.575 53.4219 18.3745 53.9688 18.3745H66.9844V21.7104H61.4609V37.187H57.5781ZM76.1172 29.8588C75.6068 30.114 74.8958 30.351 73.9844 30.5698C73.1458 30.7521 72.7266 30.8432 72.7266 30.8432C72.0703 31.0255 71.5964 31.2625 71.3047 31.5541C71.0495 31.9552 70.9219 32.3562 70.9219 32.7573C70.9219 33.3041 71.0859 33.7416 71.4141 34.0698C71.7422 34.3614 72.2161 34.5073 72.8359 34.5073C73.8568 34.5073 74.6589 34.2156 75.2422 33.6323C75.8255 33.0489 76.1172 32.2468 76.1172 31.226V29.8588ZM76.9922 36.5854C76.2266 36.9864 75.4062 37.2234 74.5312 37.2963C73.6927 37.4057 72.9453 37.4604 72.2891 37.4604C70.9766 37.4604 69.8281 37.114 68.8438 36.4213C67.8594 35.6922 67.3672 34.5073 67.3672 32.8666C67.3672 31.3354 67.8047 30.2416 68.6797 29.5854C69.5911 28.9291 70.7396 28.4916 72.125 28.2729C72.3073 28.2729 72.526 28.2547 72.7812 28.2182C73.0365 28.1453 73.3281 28.0906 73.6562 28.0541C75.2604 27.8354 76.0625 27.3614 76.0625 26.6323C76.0625 26.0854 75.7708 25.739 75.1875 25.5932C74.6406 25.4109 74.1302 25.3198 73.6562 25.3198C73.1458 25.3198 72.6901 25.3927 72.2891 25.5385C71.888 25.6843 71.5964 25.9578 71.4141 26.3588H67.75C67.8958 25.2286 68.4062 24.2989 69.2812 23.5698C70.2656 22.7312 71.6693 22.312 73.4922 22.312C75.5339 22.312 77.0651 22.6583 78.0859 23.351C79.1432 24.0802 79.6719 25.101 79.6719 26.4135V31.3901C79.6719 32.8484 79.3984 33.9968 78.8516 34.8354C78.3411 35.6375 77.7214 36.2208 76.9922 36.5854ZM94.2734 37.187H89.8984L87.3281 32.5932L84.6484 37.187H80.2188L84.9766 29.6948L80.4922 22.6401H84.7031L87.2188 27.0151L90.0078 22.312C90.3359 21.6557 90.8828 21.3276 91.6484 21.3276H94.9297L89.4609 29.7495L94.2734 37.187ZM99.5234 30.4604V37.187H95.6406V20.3432C95.6406 19.7963 95.8229 19.3406 96.1875 18.976C96.5885 18.575 97.0625 18.3745 97.6094 18.3745H104.008C106.013 18.3745 107.508 18.8849 108.492 19.9057C109.513 20.9265 110.023 22.4396 110.023 24.4448C110.023 26.3406 109.531 27.8354 108.547 28.9291C107.562 29.95 106.141 30.4604 104.281 30.4604H99.5234ZM99.5234 27.0698H103.297C104.318 27.0698 105.047 26.851 105.484 26.4135C105.958 26.0125 106.195 25.3198 106.195 24.3354C106.195 23.4968 105.977 22.8224 105.539 22.312C105.029 21.8745 104.354 21.6557 103.516 21.6557H99.5234V27.0698ZM112.539 35.8745C111.773 35.2182 111.227 34.3432 110.898 33.2495C110.57 32.1192 110.406 30.9526 110.406 29.7495C110.406 28.7651 110.534 27.7807 110.789 26.7963C111.081 25.812 111.518 24.9916 112.102 24.3354C113.049 23.2416 114.271 22.6036 115.766 22.4213C117.26 22.2026 118.609 22.312 119.812 22.7495C121.198 23.2963 122.219 24.2442 122.875 25.5932C123.495 26.7963 123.805 28.2 123.805 29.8041C123.805 30.9708 123.677 31.9734 123.422 32.812C123.167 33.6505 122.839 34.3614 122.438 34.9448C121.562 36.1479 120.451 36.8953 119.102 37.187C117.898 37.5151 116.677 37.5333 115.438 37.2416C114.234 36.9864 113.268 36.5307 112.539 35.8745ZM115.164 26.2495C114.398 27.088 114.052 28.3458 114.125 30.0229C114.198 31.6635 114.508 32.812 115.055 33.4682C115.273 33.7599 115.656 34.0151 116.203 34.2338C116.75 34.4161 117.297 34.4343 117.844 34.2885C118.427 34.1062 118.938 33.687 119.375 33.0307C119.812 32.3745 120.049 31.3172 120.086 29.8588C120.086 28.5463 119.867 27.562 119.43 26.9057C119.029 26.2495 118.555 25.8302 118.008 25.6479C117.461 25.4656 116.914 25.4656 116.367 25.6479C115.82 25.7937 115.419 25.9942 115.164 26.2495ZM134.031 18.3198H135.891C136.401 18.3198 136.839 18.5203 137.203 18.9213C137.568 19.2859 137.75 19.7052 137.75 20.1791V30.8432C137.75 33.4317 137.003 35.1817 135.508 36.0932C134.013 37.0047 132.391 37.4604 130.641 37.4604C129.693 37.4604 128.763 37.3146 127.852 37.0229C126.94 36.6948 126.211 36.1843 125.664 35.4916C124.607 34.1427 124.078 32.3015 124.078 29.9682C124.078 27.6713 124.607 25.8302 125.664 24.4448C126.758 23.0229 128.161 22.312 129.875 22.312C130.786 22.312 131.589 22.4942 132.281 22.8588C133.01 23.2963 133.594 23.8614 134.031 24.5541V18.3198ZM127.797 29.8041C127.797 31.2625 128.07 32.3745 128.617 33.1401C129.164 33.9057 129.948 34.2885 130.969 34.2885C131.953 34.2885 132.719 33.9057 133.266 33.1401C133.776 32.3745 134.031 31.2625 134.031 29.8041C134.031 28.4916 133.758 27.4526 133.211 26.687C132.628 25.9578 131.844 25.5932 130.859 25.5932C129.911 25.5932 129.164 25.976 128.617 26.7416C128.07 27.4708 127.797 28.4916 127.797 29.8041Z" fill="white"/>
</svg>
