<svg width="156" height="51" viewBox="0 0 156 51" fill="none" xmlns="http://www.w3.org/2000/svg">
<g clip-path="url(#clip0_825_739)">
<path d="M66.9444 38.7739V21.2278H60.7675V19.6778C60.7675 19.0578 60.9693 18.5411 61.373 18.1278C61.8171 17.6731 62.342 17.4458 62.9476 17.4458H77.3605V21.2278H71.2441V38.7739H66.9444ZM87.4738 30.4659C86.9086 30.7552 86.1212 31.0239 85.112 31.2719C84.1834 31.4785 83.7192 31.5818 83.7192 31.5818C82.9924 31.7885 82.4676 32.0572 82.1446 32.3879C81.862 32.8425 81.7207 33.2972 81.7207 33.7519C81.7207 34.3719 81.9023 34.8679 82.2658 35.2399C82.6291 35.5706 83.1539 35.7359 83.8402 35.7359C84.9707 35.7359 85.8589 35.4052 86.5048 34.7439C87.1507 34.0826 87.4738 33.1732 87.4738 32.0159V30.4659ZM88.4427 38.0919C87.5949 38.5466 86.6864 38.8153 85.7175 38.8979C84.789 39.022 83.9613 39.0839 83.2347 39.0839C81.7813 39.0839 80.5095 38.6913 79.4195 37.9059C78.3294 37.0792 77.7844 35.7359 77.7844 33.8759C77.7844 32.1398 78.2689 30.8999 79.2378 30.1558C80.2471 29.4119 81.5188 28.9159 83.053 28.6678C83.2548 28.6678 83.497 28.6472 83.7796 28.6058C84.0623 28.5232 84.3852 28.4612 84.7486 28.4199C86.525 28.1719 87.4132 27.6345 87.4132 26.8078C87.4132 26.1878 87.0902 25.7952 86.4443 25.6298C85.8386 25.4232 85.2734 25.3198 84.7486 25.3198C84.1834 25.3198 83.6787 25.4025 83.2347 25.5678C82.7905 25.7332 82.4676 26.0432 82.2658 26.4978H78.2083C78.3698 25.2165 78.9349 24.1625 79.9039 23.3358C80.994 22.3851 82.5484 21.9098 84.567 21.9098C86.8278 21.9098 88.5234 22.3025 89.6538 23.0878C90.8246 23.9145 91.4101 25.0718 91.4101 26.5598V32.2018C91.4101 33.8553 91.1072 35.1572 90.5017 36.1079C89.9364 37.0172 89.2502 37.6786 88.4427 38.0919ZM107.579 38.7739H102.734L99.8882 33.5658L96.9208 38.7739H92.0157L97.2843 30.2798L92.3184 22.2818H96.9814L99.7672 27.2418L102.856 21.9098C103.219 21.1658 103.825 20.7938 104.672 20.7938H108.306L102.25 30.3419L107.579 38.7739ZM113.393 31.1478V38.7739H109.093V19.6778C109.093 19.0578 109.295 18.5411 109.699 18.1278C110.143 17.6731 110.668 17.4458 111.273 17.4458H118.359C120.579 17.4458 122.234 18.0245 123.324 19.1818C124.455 20.3391 125.02 22.0545 125.02 24.3278C125.02 26.4772 124.475 28.1719 123.385 29.4119C122.295 30.5692 120.72 31.1478 118.661 31.1478H113.393ZM113.393 27.3038H117.571C118.702 27.3038 119.509 27.0558 119.994 26.5598C120.518 26.1052 120.781 25.3198 120.781 24.2038C120.781 23.2532 120.539 22.4885 120.054 21.9098C119.489 21.4138 118.742 21.1658 117.814 21.1658H113.393V27.3038ZM127.806 37.2859C126.958 36.5418 126.352 35.5498 125.989 34.3099C125.626 33.0286 125.444 31.7058 125.444 30.3419C125.444 29.2258 125.585 28.1098 125.868 26.9938C126.191 25.8778 126.675 24.9478 127.321 24.2038C128.371 22.9638 129.723 22.2405 131.379 22.0338C133.034 21.7858 134.528 21.9098 135.86 22.4058C137.394 23.0258 138.525 24.1005 139.251 25.6298C139.938 26.9938 140.281 28.5852 140.281 30.4039C140.281 31.7266 140.139 32.8633 139.857 33.8139C139.574 34.7645 139.211 35.5706 138.767 36.2319C137.798 37.5959 136.566 38.4432 135.073 38.7739C133.74 39.1459 132.388 39.1666 131.015 38.8359C129.683 38.5466 128.613 38.03 127.806 37.2859ZM130.713 26.3738C129.865 27.3245 129.481 28.7506 129.562 30.6518C129.643 32.5119 129.986 33.8139 130.591 34.5578C130.834 34.8885 131.257 35.1779 131.863 35.4259C132.469 35.6326 133.074 35.6532 133.68 35.4879C134.326 35.2813 134.891 34.8059 135.376 34.0619C135.86 33.3179 136.122 32.1192 136.163 30.4659C136.163 28.9779 135.921 27.8618 135.436 27.1178C134.992 26.3738 134.467 25.8985 133.862 25.6918C133.256 25.4852 132.65 25.4852 132.045 25.6918C131.439 25.8572 130.995 26.0845 130.713 26.3738ZM151.605 17.3838H153.664C154.229 17.3838 154.714 17.6111 155.118 18.0658C155.521 18.4791 155.723 18.9545 155.723 19.4918V31.5818C155.723 34.5166 154.896 36.5006 153.24 37.5338C151.585 38.5672 149.788 39.0839 147.851 39.0839C146.801 39.0839 145.771 38.9186 144.762 38.5879C143.753 38.2159 142.945 37.6372 142.34 36.8519C141.169 35.3225 140.584 33.2352 140.584 30.5898C140.584 27.9859 141.169 25.8985 142.34 24.3278C143.551 22.7158 145.105 21.9098 147.003 21.9098C148.012 21.9098 148.9 22.1165 149.667 22.5298C150.475 23.0258 151.121 23.6665 151.605 24.4518V17.3838ZM144.702 30.4039C144.702 32.0572 145.004 33.3179 145.61 34.1859C146.216 35.0539 147.083 35.4879 148.214 35.4879C149.304 35.4879 150.152 35.0539 150.757 34.1859C151.323 33.3179 151.605 32.0572 151.605 30.4039C151.605 28.9159 151.302 27.7378 150.697 26.8698C150.051 26.0432 149.183 25.6298 148.093 25.6298C147.043 25.6298 146.216 26.0638 145.61 26.9318C145.004 27.7585 144.702 28.9159 144.702 30.4039Z" fill="#02549E"/>
</g>
<path d="M3.87651 28.1611C4.89846 23.8083 6.08397 19.5904 7.53488 15.3904L7.90072 14.3311L8.89498 13.9226C12.9804 12.2442 19.188 11.4122 25.3405 11.4122C31.5356 11.4122 37.7912 12.2511 41.8861 13.9129L42.885 14.3185L43.2553 15.3904C44.7065 19.5901 45.8918 23.8083 46.9137 28.1611C47.9404 32.5339 48.7959 36.994 49.586 41.6777L49.8686 43.3532L48.4737 44.234C41.5524 48.6055 33.4648 50.7915 25.3952 50.7915C17.3254 50.7915 9.23782 48.6055 2.31624 44.234L0.921692 43.3532L1.20423 41.6777C1.99428 36.994 2.84986 32.5339 3.87651 28.1611ZM11.5725 18.1809C10.3515 21.8399 9.32981 25.5346 8.43458 29.347C7.57595 33.0049 6.82855 36.8093 6.12949 40.8202C11.9745 44.1499 18.6771 45.8154 25.3952 45.8154C32.1131 45.8154 38.8158 44.1499 44.6605 40.8202C43.9614 36.8093 43.2143 33.0049 42.3554 29.347C41.4613 25.5388 40.441 21.8476 39.2215 18.1926C35.6607 16.9934 30.5202 16.3886 25.3405 16.3886C20.1907 16.3886 15.0969 16.983 11.5725 18.1809Z" fill="#02549E"/>
<path fill-rule="evenodd" clip-rule="evenodd" d="M9.74044 16.237C6.90104 24.4558 5.09391 32.7767 3.52026 42.1066C16.6045 50.3704 34.1861 50.3704 47.2704 42.1066C45.6965 32.7767 43.8894 24.4558 41.05 16.237C33.4244 13.1421 17.3658 13.1041 9.74044 16.237Z" fill="#02549E"/>
<path fill-rule="evenodd" clip-rule="evenodd" d="M12.6766 19.8319C10.3696 25.9478 8.90136 32.1395 7.62292 39.0822C12.5426 41.9281 18.0769 43.6426 25.3953 43.6426C32.7134 43.6426 38.2477 41.9281 43.1674 39.0822C41.889 32.1395 40.4207 25.9478 38.114 19.8319C31.9172 17.8864 18.8733 17.8553 12.6766 19.8319Z" fill="#0B1D2C"/>
<path fill-rule="evenodd" clip-rule="evenodd" d="M18.5531 25.1396C20.7392 25.1396 22.5114 27.7646 22.5114 31.0022C22.5114 34.24 20.7392 36.8647 18.5531 36.8647C16.3668 36.8647 14.5946 34.24 14.5946 31.0022C14.5946 27.7646 16.3668 25.1396 18.5531 25.1396Z" fill="white"/>
<path fill-rule="evenodd" clip-rule="evenodd" d="M31.9807 25.008C34.1668 25.008 35.939 27.633 35.939 30.8706C35.939 34.1084 34.1668 36.7332 31.9807 36.7332C29.7946 36.7332 28.0224 34.1084 28.0224 30.8706C28.0224 27.633 29.7946 25.008 31.9807 25.008Z" fill="white"/>
<path fill-rule="evenodd" clip-rule="evenodd" d="M23.4955 6.93607H27.2949L28.5206 12.8989H22.2699L23.4955 6.93607Z" fill="#02549E"/>
<path fill-rule="evenodd" clip-rule="evenodd" d="M25.3954 0.000143051C27.7646 0.000143051 29.6851 2.03127 29.6851 4.53718C29.6851 7.04284 27.7646 9.07397 25.3954 9.07397C23.0261 9.07397 21.1056 7.04284 21.1056 4.53718C21.1056 2.03127 23.0261 0.000143051 25.3954 0.000143051Z" fill="#02549E"/>
<path fill-rule="evenodd" clip-rule="evenodd" d="M2.75944 21.3038C4.02755 21.1288 5.29543 20.9538 6.56378 20.7788C5.42402 25.9088 4.28427 31.0385 3.14452 36.1685C2.09628 35.3542 1.04816 34.5394 0 33.7248C0.729353 29.467 1.55872 25.271 2.75944 21.3038Z" fill="#02549E"/>
<path fill-rule="evenodd" clip-rule="evenodd" d="M48.0313 21.3038C46.7632 21.1288 45.495 20.9538 44.2269 20.7788C45.3667 25.9088 46.5062 31.0385 47.6462 36.1685C48.6944 35.3542 49.7424 34.5394 50.7907 33.7248C50.0613 29.467 49.2318 25.271 48.0313 21.3038Z" fill="#02549E"/>
<path d="M15.8525 6.72611L16.6662 6.39577C16.8319 6.85237 17.5305 7.01504 18.1936 6.74581C18.8567 6.47659 19.2729 5.86135 19.1072 5.40476C18.9384 4.93971 18.4539 4.94238 17.4776 5.08168C16.5337 5.20777 15.3584 5.36478 14.9318 4.18947C14.6572 3.43271 15.022 2.54729 15.7696 1.99639L15.4351 1.07474L16.6556 0.579233L16.9901 1.50088C17.8943 1.3812 18.7256 1.78102 19.0002 2.53778L18.1865 2.86812C18.0208 2.41152 17.3223 2.24885 16.6591 2.51808C15.996 2.78731 15.5798 3.40254 15.7455 3.85913C15.9143 4.32418 16.3988 4.32152 17.3752 4.18222C18.319 4.05613 19.4943 3.89911 19.9209 5.07442C20.1956 5.83119 19.8307 6.7166 19.0831 7.26751L19.4176 8.18915L18.1971 8.68466L17.8626 7.76301C16.9585 7.88269 16.1272 7.48288 15.8525 6.72611Z" fill="#02549E"/>
<path d="M31.45 5.07377L32.2637 5.40411C32.098 5.8607 32.5142 6.47593 33.1773 6.74516C33.8405 7.01439 34.539 6.85172 34.7047 6.39512C34.8735 5.93007 34.5118 5.58918 33.6981 5.00174C32.9169 4.42751 31.9441 3.71244 32.3707 2.53713C32.6454 1.78036 33.4767 1.38055 34.3808 1.50023L34.7153 0.57858L35.9358 1.07409L35.6013 1.99573C36.3489 2.54664 36.7138 3.43205 36.4391 4.18882L35.6254 3.85848C35.7911 3.40189 35.3749 2.78665 34.7118 2.51743C34.0486 2.2482 33.3501 2.41087 33.1844 2.86747C33.0156 3.33252 33.3773 3.6734 34.191 4.26084C34.9722 4.83507 35.945 5.55015 35.5184 6.72546C35.2437 7.48222 34.4125 7.88204 33.5083 7.76236L33.1738 8.68401L31.9533 8.1885L32.2878 7.26685C31.5402 6.71595 31.1754 5.83053 31.45 5.07377Z" fill="#02549E"/>
<defs>
<clipPath id="clip0_825_739">
<rect width="95.2325" height="22.6744" fill="white" transform="translate(60.7675 17.2332)"/>
</clipPath>
</defs>
</svg>
